<svg id="bbf55c88-d50d-4de6-9f4e-7fb27e364574" data-name="‘лой_1" xmlns="http://www.w3.org/2000/svg" viewBox="0 0 18.32 11.55"><title>garantie</title><path d="M17.2,11.33H1.64S-1,7.7.41,5.27,3.86,4.56,4,2.81a1.08,1.08,0,0,0,0-.18.08.08,0,0,1,0,0,2.33,2.33,0,0,1,1.57-2l.08,0a5.46,5.46,0,0,1,4.08,0c1.41.82,1.4,1.81,4.3,1.48a2.55,2.55,0,0,1,2.71,3.78C15.7,7.79,19.75,7.46,17.2,11.33Z" style="fill:#ebf3fa"/><path d="M11.15,5.3l-.38-.37-.37-.37a0,0,0,0,1,0-.06c0-.07.13-.14.2-.19h0a.21.21,0,0,1,.3,0l.46.53h0l.13.16a.21.21,0,0,1,0,.3h0A.22.22,0,0,1,11.15,5.3Z" style="fill:#ffb27d"/><path d="M11.26,2.9a.17.17,0,0,1-.15.14,1.59,1.59,0,0,1-.81-.1c-.37,0-.63-.13-.71-.06v0C9.67,3,10.79,4,10.81,4.08a14.65,14.65,0,0,1-2.09.62s-.31-.19-.66-.45a5.21,5.21,0,0,1-.52-.41,2.16,2.16,0,0,1-.37-.41h0l0-.05h0A1.1,1.1,0,0,0,6.88,3a2.39,2.39,0,0,0-.66-.4L7.77,1.8a10.39,10.39,0,0,1,1.64.3,11.64,11.64,0,0,0,1.16.43c.1.06.62.24.66.26A.14.14,0,0,1,11.26,2.9Z" style="fill:#ffb27d"/><path d="M7.28,1.56h0a4.49,4.49,0,0,1-.11.51h0v0h0a1.36,1.36,0,0,1-.46.75h0l0,0-.1,0H6.48L6,2.88h0L4,2.63a.08.08,0,0,1,0,0,2.33,2.33,0,0,1,1.57-2l1.2.72h0l.06,0h0Z" style="fill:#f99746"/><path d="M7.4,2.73h0c.15.92.68.77.68.77l0,.75a5.21,5.21,0,0,1-.52-.41,2.16,2.16,0,0,1-.37-.41h0l0-.05h0A1.1,1.1,0,0,0,6.88,3c0-.1.12-.21.18-.31A.19.19,0,0,1,7.4,2.73Z" style="fill:#efa26f"/><path d="M6.81,1.28a5,5,0,0,0-.7.73l.15.26L6,2.25a1.51,1.51,0,0,0-.06.62l.69.07.8-1.27Z" style="fill:#ed7d2b"/><path d="M6,3a1.59,1.59,0,0,1,.16-.57l.61.12L6.29,2a5.3,5.3,0,0,1,.52-.75l.13-.16c.46.34.88.68.88.68a1.2,1.2,0,0,0-.5.48,4.51,4.51,0,0,0-.4.78Z" style="fill:#dceaff"/><path d="M6,3a1.59,1.59,0,0,1,.16-.57l.61.12L6.29,2a5.3,5.3,0,0,1,.52-.75,1.61,1.61,0,0,0,.51,1,4.51,4.51,0,0,0-.4.78Z" style="fill:#cbe1fd"/><path d="M6.67,1.77a.08.08,0,0,1,.07.08.09.09,0,0,1-.09.07s-.07,0-.06-.08A.08.08,0,0,1,6.67,1.77Z" style="fill:#f99746"/><rect x="7.76" y="2.84" width="4.58" height="2.1" transform="translate(-0.68 2.9) rotate(-15.92)" style="fill:#82b378"/><rect x="7.95" y="2.95" width="4.58" height="2.1" transform="translate(-0.56 1.92) rotate(-10.45)" style="fill:#a8d29f"/><path d="M12.44,4.3l-.19-1h0l-.1-.51H12.1l-.84.15h0L10.62,3l-.08,0h0l-.68.12L8.08,3.5H8l.07.38.08.43.17.94,1-.18h0L9.5,5h.13l.08,0,.2,0h.21l.4-.08h.08l.07,0,.56-.1.5-.09.18,0,.56-.1Zm-.25.17-.91.16h0l-.11,0h0l-.57.11h0l-.4.07-.13,0H9.88l-.19,0H9.48L9.32,5h0l-.7.13A.2.2,0,0,1,8.35,5l-.11-.59-.11-.61a.19.19,0,0,1,.16-.23l1.64-.3.77-.15.22,0h0l.27,0h0l.69-.13a.21.21,0,0,1,.24.16l.22,1.2a.31.31,0,0,1,0,.1A.21.21,0,0,1,12.19,4.47Z" style="fill:#82b378"/><path d="M10.32,4.52a.53.53,0,0,1-.17-1,.53.53,0,0,1,.17,1Z" style="fill:#82b378"/><path d="M9.22,4.39A.19.19,0,1,1,9.16,4a.19.19,0,0,1,.06.38Z" style="fill:#82b378"/><path d="M11.32,4a.2.2,0,1,1,.16-.23A.21.21,0,0,1,11.32,4Z" style="fill:#82b378"/><path d="M9.75,5.36V5.31L9.62,5V5a.2.2,0,0,1,.12-.24h0a.21.21,0,0,1,.26.12l.1.28v0l0,0a.21.21,0,0,1-.12.26h0A.22.22,0,0,1,9.75,5.36Z" style="fill:#ffb27d"/><path d="M9.75,5.11a1.39,1.39,0,0,1-.06-.19.07.07,0,0,1,0-.06l.07,0h.09l0,0h0A1.46,1.46,0,0,1,10,5a.08.08,0,0,1,0,.09h0l-.09,0A.07.07,0,0,1,9.75,5.11Z" style="fill:#ffd3b6"/><path d="M9.75,5.11a1.39,1.39,0,0,1-.06-.19.07.07,0,0,1,0-.06h.11l0,0h0a.73.73,0,0,1,.07.19.09.09,0,0,1,0,.07l-.09,0A.07.07,0,0,1,9.75,5.11Z" style="fill:#ffc197"/><rect x="9.3" y="4.81" width="0.29" height="0.5" rx="0.13" transform="translate(-0.98 2.58) rotate(-14.78)" style="fill:#ffb27d"/><path d="M9.34,5.09a.9.9,0,0,1,0-.16.08.08,0,0,1,0-.06h.11l0,0h0a1,1,0,0,1,0,.16s0,.07,0,.08h0l-.07,0S9.35,5.13,9.34,5.09Z" style="fill:#ffd3b6"/><path d="M9.34,5.09a.9.9,0,0,1,0-.16.08.08,0,0,1,0-.06h.07a0,0,0,0,1,0,0h0a.66.66,0,0,1,0,.15.06.06,0,0,1,0,.07l-.07,0S9.35,5.13,9.34,5.09Z" style="fill:#ffc197"/><path d="M10.2,5.35h0L10.12,5a.25.25,0,0,1,.16-.3l.06,0a.23.23,0,0,1,.28.17l0,.1,0,.2a.25.25,0,0,1-.16.3l-.07,0A.23.23,0,0,1,10.2,5.35Z" style="fill:#ffb27d"/><path d="M10.28,5.21l-.06-.14h0s0,0,0,0h.16l.08,0h0a0,0,0,0,1,.07,0h0l0,.16a.08.08,0,0,1-.06.09l0,0-.1,0S10.29,5.25,10.28,5.21Z" style="fill:#ffd3b6"/><path d="M10.28,5.21l-.06-.14h0V5s0,0,0,0h.16l.08,0s0,0,0,0h0l0,.16a.08.08,0,0,1,0,.09l-.1,0S10.29,5.25,10.28,5.21Z" style="fill:#ffc197"/><path d="M9.26,2.55S9.19,2,9.41,2.1a11.64,11.64,0,0,0,1.16.43c.1.06.62.24.66.26a.12.12,0,0,1,0,.13.33.33,0,0,1-.17.16c-.32.13-.76-.14-.78-.14-.37,0-.73,0-.83,0S9.26,2.55,9.26,2.55Z" style="fill:#ffb27d"/><path d="M11.27,2.8l-.37-.13a.25.25,0,0,0,0,.12S11.24,2.91,11.27,2.8Z" style="fill:#ffc197"/><path d="M4.62,7.32l.07.06a.19.19,0,0,1,.25.17s0,.1-.05.1H4.76a.17.17,0,0,1-.18-.12l0-.06Z" style="fill:#ea8e50"/><path d="M4.61,7.45a.17.17,0,0,0,.06-.11S4,6.79,3.92,6.75A8.78,8.78,0,0,1,3.15,6c-.11-.13-.26-.08-.42,0L2.6,6a.22.22,0,0,0-.07.39,9,9,0,0,0,1.11.73,6.93,6.93,0,0,0,.85.4A.44.44,0,0,0,4.61,7.45Z" style="fill:#1e3d70"/><path d="M5.38,10.83a.47.47,0,0,0,.41.06S6,10.85,6,11l-.39.2a.67.67,0,0,0-.16.12.08.08,0,0,1-.12,0l0-.06c0-.06-.15-.27-.15-.27Z" style="fill:#204272"/><circle cx="4.66" cy="6.36" r="1.14" style="fill:#e2810e"/><circle cx="4.56" cy="6.36" r="1.14" style="fill:#ffc76c"/><path d="M4.56,7.42a1,1,0,0,1-1-1,1,1,0,0,1,1-1,1,1,0,0,1,1,1,1.06,1.06,0,0,1-1,1Zm0-2a1,1,0,1,0,1,1A1,1,0,0,0,4.56,5.4Z" style="fill:#ffa412"/><path d="M4.7,6.68V6.62a.05.05,0,0,0,0,0s0,0,0-.05l-.08,0L4.4,6.4a.53.53,0,0,1-.11-.09.41.41,0,0,1-.07-.11.57.57,0,0,1,0-.14.56.56,0,0,1,0-.12l.08-.09a.43.43,0,0,1,.12,0l.14,0,0-.17.14,0,0,.17.13,0L5,5.94A.67.67,0,0,1,5,6.06a.38.38,0,0,1,0,.15l-.25,0a.24.24,0,0,0,0-.15A.24.24,0,0,0,4.63,6H4.56l0,0,0,0s0,0,0,0v.06l0,0,0,0,.08,0,.15.08.11.09a.24.24,0,0,1,.06.11.32.32,0,0,1,0,.14.25.25,0,0,1,0,.12.24.24,0,0,1-.08.09L4.72,7,4.57,7l0,.16-.14,0,0-.16a.35.35,0,0,1-.13,0,.28.28,0,0,1-.11-.08.24.24,0,0,1-.07-.12.32.32,0,0,1,0-.17l.25,0a.17.17,0,0,0,0,.1.21.21,0,0,0,0,.06.1.1,0,0,0,0,0l.07,0h.07l.06,0,0,0A.43.43,0,0,0,4.7,6.68Z" style="fill:#ffa412"/><path d="M5.48,10.77a.32.32,0,0,1-.33.19,6.51,6.51,0,0,1-.79-.79,1.55,1.55,0,0,1-.25-.38A6.84,6.84,0,0,0,3,8.18l.91-.33s.3.59.69,1.32C4.84,9.69,5.17,10.28,5.48,10.77Z" style="fill:#2b478b"/><path d="M4.56,9.17l-.2,1a1.55,1.55,0,0,1-.25-.38A6.84,6.84,0,0,0,3,8.18l.91-.33S4.17,8.44,4.56,9.17Z" style="fill:#233862"/><path d="M3.81,11s0,.18.21.2c0,0,.14,0,.14.12H3.49a.66.66,0,0,1,0-.14,1.38,1.38,0,0,1,.07-.28Z" style="fill:#204272"/><path d="M3.57,7.85a3.67,3.67,0,0,1,.67,1.26A5.62,5.62,0,0,1,3.9,11a1.16,1.16,0,0,1-.45,0,9,9,0,0,1,.1-1.41c.06-.34-.54-.73-.8-1.34-.18-.42,0-.42.3-.43Z" style="fill:#2b478b"/><path d="M3.1,5.86a1.3,1.3,0,0,1-.69,0,.65.65,0,0,0,.1-.57l.18.09.19.1a.59.59,0,0,1,0,.17.31.31,0,0,1,0,.1A.44.44,0,0,1,3.1,5.86Z" style="fill:#ffb07b"/><path d="M3.93,7.83a.06.06,0,0,1-.05.06A3.51,3.51,0,0,1,3.3,8a1.85,1.85,0,0,1-.57,0s-.09,0-.09,0-.76-1.55-.18-2.2a.74.74,0,0,1,.24,0,.48.48,0,0,0,.27,0l.1.05a.94.94,0,0,1,.38.5c0,.1.07.17.08.25a.36.36,0,0,1,0,.1s0,.11,0,.16a2.51,2.51,0,0,0,.11.38,1.49,1.49,0,0,0,.11.28c0,.11.08.18.1.24A.44.44,0,0,1,3.93,7.83Z" style="fill:#aec3ff"/><path d="M3.91,7.73A3,3,0,0,1,2.47,6.26s.87.32,1.08.41c0,0,0,.11,0,.16a2.51,2.51,0,0,0,.11.38,1.49,1.49,0,0,0,.11.28C3.85,7.6,3.89,7.67,3.91,7.73Z" style="fill:#91b0f2"/><path d="M4.53,7.44l.1,0a.2.2,0,0,1,.3.09s0,.09,0,.11l-.13,0c-.1,0-.19,0-.22-.06l-.06,0Z" style="fill:#ffb07b"/><path d="M4.61,7.57l0-.13-.77-.62a4.76,4.76,0,0,1-.76-.67A.52.52,0,0,0,2.65,6L2.5,6a.22.22,0,0,0-.1.38,12.14,12.14,0,0,0,1.16.8,7.4,7.4,0,0,0,1,.47A.17.17,0,0,0,4.61,7.57Z" style="fill:#aec3ff"/><path d="M2.9,5.66a.44.44,0,0,1-.36-.17.72.72,0,0,0,.15-.1l.19.1A.59.59,0,0,1,2.9,5.66Z" style="fill:#ea8e50"/><path d="M3,5.43s-.34.25-.49,0S2.22,5.14,2.43,5s.31-.12.38-.06S3.08,5.37,3,5.43Z" style="fill:#ffb07b"/><path d="M2.84,4.73a.48.48,0,0,0,0-.14s0,.09-.18.08a.48.48,0,0,0-.5.2s0,0,0,0a.27.27,0,0,1,0-.1.33.33,0,0,0,0,.18h0A.31.31,0,0,0,2,5.11s0,0,.06-.05a.34.34,0,0,0,.16.32c.15.06.15,0,.3.11s0,0,0-.08-.13-.08-.07-.13.08,0,.1,0-.09-.13,0-.22S2.86,4.81,2.84,4.73Z" style="fill:#233862"/><path d="M15.36,7.13a.07.07,0,0,1,0,0,.34.34,0,0,1,0,.1c0,.07.09.17.15.21s0-.15,0-.19a.26.26,0,0,0,0-.18C15.46,7,15.36,7.13,15.36,7.13Z" style="fill:#ffb27d"/><path d="M13.94,5.41a.29.29,0,0,1,.44-.27h0a5,5,0,0,1,1,1.15,5.24,5.24,0,0,1,.21.87s-.16.06-.24,0A6.4,6.4,0,0,0,15,6.44c-.1-.11-1-.62-1-.83A1.41,1.41,0,0,0,13.94,5.41Z" style="fill:#ed7d2b"/><path d="M15.77,10.74s.12.11.1.19-.14.13-.15.23-.08.15-.13.15h-.25s0-.07.05-.09.13-.14.13-.24a1.3,1.3,0,0,1,0-.25l.2-.05Z" style="fill:#224275"/><path d="M14.27,11s0,.25,0,.28h-.69s0-.07.11-.09S14,11.13,14,11,14.27,11,14.27,11Z" style="fill:#224275"/><path d="M13.69,7.44s0,.45.08,1c.06.73.13,1.62.14,1.79S14,11,14,11a.41.41,0,0,0,.34.07,6.87,6.87,0,0,0,.26-1.38v0c0-.72.13-2.24.13-2.24Z" style="fill:#aec3ff"/><path d="M13.69,7.44s0,.45.08,1l.79,1.24v0c0-.72.13-2.24.13-2.24Z" style="fill:#91b0f2"/><path d="M13.86,7.5s.65,1.61,1.08,2.36.56,1,.56,1,.25-.1.27-.16a5.87,5.87,0,0,0-.45-1.82,2.66,2.66,0,0,1-.36-1c0-.21-.06-.63-.06-.63Z" style="fill:#aec3ff"/><path d="M14.42,5.08a1.31,1.31,0,0,1-.69.15.38.38,0,0,1,.1-.1A.13.13,0,0,0,13.88,5V5a1.36,1.36,0,0,1,0-.15L14,4.68l.16-.13A.64.64,0,0,0,14.42,5.08Z" style="fill:#ffb27d"/><path d="M14.85,7.33a1.52,1.52,0,0,1-.54.23,4.54,4.54,0,0,1-.6.06h0A5.63,5.63,0,0,1,13.59,7s0,0,0,0h0c0-.14,0-.28,0-.43l0-.33c0-.13,0-.25,0-.35a.53.53,0,0,1,0-.13.85.85,0,0,1,.2-.46l.11-.09a.35.35,0,0,0,.25-.07c.09-.06.19-.13.21-.12a.92.92,0,0,1,.35.56,3.38,3.38,0,0,1,.11.52c0,.06,0,.12,0,.18v0c0,.16,0,.31.05.45s.06.34.08.44a.86.86,0,0,0,0,.13S14.88,7.32,14.85,7.33Z" style="fill:#f99746"/><path d="M14.19,4.69a.55.55,0,0,1-.32.26,1.49,1.49,0,0,1,0-.28h.33Z" style="fill:#ed985f"/><path d="M13.74,4.72s.39.16.49-.08.21-.39,0-.5-.33,0-.38,0S13.64,4.67,13.74,4.72Z" style="fill:#ffb27d"/><path d="M14.49,4.18h0l0,0s0-.08,0-.1a.08.08,0,0,1,0,.05c0-.07-.15-.14-.47-.18s-.35.23-.3.27.2,0,.3,0,.08.18.11.21,0,0,.08,0,0,.07,0,.11a.2.2,0,0,0,0,.13l.08-.05a.84.84,0,0,0,.2-.4Z" style="fill:#2c3a64"/><path d="M14.25,5.83a2,2,0,0,1-.74.33c0-.13,0-.25,0-.35Z" style="fill:#ed7d2b"/><path d="M12.14,4.89s0-.26-.13-.28-.29-.07-.29,0A2.26,2.26,0,0,0,12,5Z" style="fill:#ffb27d"/><path d="M14.32,5.39a.29.29,0,0,1-.18.48h0a5.67,5.67,0,0,1-1.53-.35A4.27,4.27,0,0,1,12,5s.09-.14.19-.14a4.21,4.21,0,0,0,.73.38c.13,0,1.17-.16,1.3,0Z" style="fill:#f99746"/><path d="M15.54,7.19l0,.08s0,.09,0,.09l-.06-.08S15.54,7.19,15.54,7.19Z" style="fill:#ffb27d"/><g style="opacity:0.5"><path d="M7.6,8.13A3.61,3.61,0,0,0,7,6.47a.12.12,0,0,0-.21.08h0C6.75,6.74,7.35,7.52,7.6,8.13Z" style="fill:#afcdfb;opacity:0.5"/><path d="M7.67,8.43A4.62,4.62,0,0,0,6.23,6.55a.13.13,0,0,0-.17,0,.19.19,0,0,0,0,.17C6.13,7,7.14,7.76,7.67,8.43Z" style="fill:#afcdfb;opacity:0.5"/></g><path d="M4.85,8.83c.05-.54,1-.53,1-.53s.74.81.92.8-.5-.81-.5-.81a3.9,3.9,0,0,1,1.25.17s.12,1.07.29,1-.16-.94-.16-.94a1.63,1.63,0,0,1,.71.37c.48.55-.25,1.14-.25,1.14a1.71,1.71,0,0,0,.35.75h0a2.17,2.17,0,0,1,.14.19l-.09,0a.25.25,0,0,0,0-.07h0l0,0h0l-.08-.11h0c-.11-.15-.26-.35-.35-.38a.12.12,0,0,0,0-.05v.05c-.09.35-.84.53-1.28.52s-.27-.17-.07-.4.67-.26.8-.36-.09-.14-.37-.07-.37.37-.81.49-.94-.67-.94-.67a1.14,1.14,0,0,0,.87-.34c0-.11-.83,0-1,0S4.8,9.37,4.85,8.83Z" style="fill:#afcdfb;opacity:0.5"/><path d="M13.58,8.72c0-.4-.65-.47-.65-.47s-.62.53-.75.5.44-.55.44-.55a3,3,0,0,0-.93,0s-.18.77-.3.72.2-.67.2-.67a1.2,1.2,0,0,0-.55.21c-.4.36.08.85.08.85a1.27,1.27,0,0,1-.32.52h0l-.11.13.06,0,0-.05h0l0,0h0l.07-.08h0a.91.91,0,0,1,.28-.24v0c0,.26.57.46.89.48s.22-.09.09-.28-.47-.25-.55-.33.08-.1.27,0,.24.3.56.43.74-.41.74-.41c-.25,0-.61-.24-.6-.32s.6.1.7.1S13.57,9.12,13.58,8.72Z" style="fill:#afcdfb;opacity:0.5"/><path d="M7.08,8.66v.5a.19.19,0,0,1-.19.18H6.51a.18.18,0,0,1-.18-.18v-.5a.18.18,0,0,1,.18-.18h.38A.19.19,0,0,1,7.08,8.66Z" style="fill:#ed7d2b"/><path d="M7.08,8.66v.28a.19.19,0,0,1-.19.18H6.51a.18.18,0,0,1-.18-.18V8.66a.18.18,0,0,1,.18-.18h.38A.19.19,0,0,1,7.08,8.66Z" style="fill:#f99746"/><path d="M11.28,8.91a1.77,1.77,0,0,1-.15.73A2,2,0,0,1,9.31,10.8H8.65a2,2,0,0,1-1.11-.39,2.06,2.06,0,0,1-.49-.53,1.85,1.85,0,0,1-.27-1,1.77,1.77,0,0,1,.15-.73A2,2,0,0,1,8.75,7h.56A2,2,0,0,1,11,8,1.87,1.87,0,0,1,11.28,8.91Z" style="fill:#ed7d2b"/><path d="M9.64,10l-.18,1.14a.14.14,0,0,0,.14.17h.49a.27.27,0,0,0,.24-.14l.75-1.43Z" style="fill:#ed7d2b"/><path d="M8.55,11.31H8.07a.27.27,0,0,1-.25-.14l-.46-.78-.31-.52L8.54,10l.06.41.05.36,0,.35A.13.13,0,0,1,8.55,11.31Z" style="fill:#ed7d2b"/><path d="M11,8.69a2.1,2.1,0,0,1-2.3,1.73H8.6c-.44,0-.79,0-1.06,0H7.36l-.31-.52a1.85,1.85,0,0,1-.27-1,1.77,1.77,0,0,1,.15-.73A2,2,0,0,1,8.75,7h.56A2,2,0,0,1,11,8,1.55,1.55,0,0,1,11,8.69Z" style="fill:#f99746"/><path d="M8.51,7.5H7.74c-.08,0-.14,0-.14-.1v-1s0,0,0,0a.17.17,0,0,1,.21,0,1.48,1.48,0,0,1,.84,1.09C8.66,7.45,8.6,7.5,8.51,7.5Z" style="fill:#f99746"/><path d="M7.77,7.5h0c-.08,0-.14,0-.14-.1v-1s0,0,0,0h0a1.28,1.28,0,0,1,.35,1A.19.19,0,0,1,7.77,7.5Z" style="fill:#ed7d2b"/><path d="M7.36,8.17a.11.11,0,0,1,.12-.11.11.11,0,0,1,0,.22A.11.11,0,0,1,7.36,8.17Z" style="fill:#2b478b"/><path d="M9.69,11.13v.12a0,0,0,0,0,0,0H12a.05.05,0,0,0,0-.05h0v-.12h0s0,0,0,0H9.73l0,0S9.69,11.12,9.69,11.13Z" style="fill:#ffc76c"/><path d="M10.79,11.3H12a0,0,0,0,0,0-.05h0v-.12h0a0,0,0,0,0,0,0H10.94A.44.44,0,0,1,10.79,11.3Z" style="fill:#ffae39"/><rect x="9.96" y="11.09" width="0.03" height="0.21" transform="translate(19.95 22.38) rotate(180)" style="fill:#ffa412"/><rect x="10.05" y="11.09" width="0.03" height="0.21" transform="translate(20.12 22.38) rotate(180)" style="fill:#ffa412"/><rect x="10.15" y="11.09" width="0.03" height="0.21" transform="translate(20.33 22.38) rotate(180)" style="fill:#ffa412"/><rect x="10.31" y="11.09" width="0.03" height="0.21" transform="translate(20.65 22.38) rotate(180)" style="fill:#ffa412"/><rect x="10.48" y="11.09" width="0.03" height="0.21" transform="translate(20.98 22.38) rotate(180)" style="fill:#ffa412"/><rect x="10.74" y="11.09" width="0.03" height="0.21" transform="translate(21.5 22.38) rotate(180)" style="fill:#ffa412"/><rect x="10.98" y="11.09" width="0.03" height="0.21" transform="translate(21.98 22.38) rotate(180)" style="fill:#ffa412"/><rect x="11.19" y="11.09" width="0.03" height="0.21" transform="translate(22.41 22.38) rotate(180)" style="fill:#ffa412"/><rect x="9.88" y="11.09" width="0.03" height="0.21" transform="translate(19.79 22.38) rotate(180)" style="fill:#ffa412"/><rect x="9.83" y="11.09" width="0.03" height="0.21" transform="translate(19.68 22.38) rotate(180)" style="fill:#ffa412"/><rect x="9.77" y="11.09" width="0.03" height="0.21" transform="translate(19.58 22.38) rotate(180)" style="fill:#ffa412"/><path d="M9.74,11.09v.21h0v-.21h0Z" style="fill:#ffa412"/><path d="M9.7,11.11v.17h0v-.2Z" style="fill:#ffa412"/><path d="M9.93,10.92V11a0,0,0,0,0,0,0h2.29a.05.05,0,0,0,0-.05h0v-.12h0s0,0,0,0H9.94Z" style="fill:#ffc76c"/><path d="M11,11.09h1.2a0,0,0,0,0,0-.05h0v-.12h0a0,0,0,0,0,0,0H11.18A.4.4,0,0,1,11,11.09Z" style="fill:#ffae39"/><rect x="10.2" y="10.88" width="0.03" height="0.21" transform="translate(20.43 21.96) rotate(180)" style="fill:#ffa412"/><rect x="10.29" y="10.88" width="0.03" height="0.21" transform="translate(20.6 21.96) rotate(180)" style="fill:#ffa412"/><rect x="10.39" y="10.88" width="0.03" height="0.21" transform="translate(20.81 21.96) rotate(180)" style="fill:#ffa412"/><rect x="10.55" y="10.88" width="0.03" height="0.21" transform="translate(21.13 21.96) rotate(180)" style="fill:#ffa412"/><rect x="10.72" y="10.88" width="0.03" height="0.21" transform="translate(21.46 21.96) rotate(180)" style="fill:#ffa412"/><rect x="10.98" y="10.88" width="0.03" height="0.21" transform="translate(21.98 21.96) rotate(180)" style="fill:#ffa412"/><rect x="11.22" y="10.88" width="0.03" height="0.21" transform="translate(22.46 21.96) rotate(180)" style="fill:#ffa412"/><rect x="11.43" y="10.88" width="0.03" height="0.21" transform="translate(22.89 21.96) rotate(180)" style="fill:#ffa412"/><rect x="10.12" y="10.88" width="0.03" height="0.21" transform="translate(20.27 21.96) rotate(180)" style="fill:#ffa412"/><rect x="10.07" y="10.88" width="0.03" height="0.21" transform="translate(20.16 21.96) rotate(180)" style="fill:#ffa412"/><rect x="10.01" y="10.88" width="0.03" height="0.21" transform="translate(20.05 21.96) rotate(180)" style="fill:#ffa412"/><path d="M10,10.88v.21h0v-.21Z" style="fill:#ffa412"/><path d="M9.94,10.9v.17h0v-.2S10,10.89,9.94,10.9Z" style="fill:#ffa412"/><path d="M9.81,10.72v.14l0,0h2.28s0,0,0,0h0v-.12h0a0,0,0,0,0-.05-.05H9.82Z" style="fill:#ffc76c"/><path d="M10.91,10.88h1.23a.05.05,0,0,0,0,0h0v-.12h0a0,0,0,0,0,0-.05H11.06a.33.33,0,0,1-.14.21Z" style="fill:#ffae39"/><rect x="10.09" y="10.67" width="0.03" height="0.21" transform="translate(20.2 21.56) rotate(180)" style="fill:#ffa412"/><rect x="10.17" y="10.67" width="0.03" height="0.21" transform="translate(20.37 21.56) rotate(180)" style="fill:#ffa412"/><rect x="10.28" y="10.67" width="0.03" height="0.21" transform="translate(20.58 21.56) rotate(180)" style="fill:#ffa412"/><rect x="10.44" y="10.67" width="0.03" height="0.21" transform="translate(20.9 21.56) rotate(180)" style="fill:#ffa412"/><rect x="10.6" y="10.67" width="0.03" height="0.21" transform="translate(21.23 21.56) rotate(180)" style="fill:#ffa412"/><rect x="10.86" y="10.67" width="0.03" height="0.21" transform="translate(21.75 21.56) rotate(180)" style="fill:#ffa412"/><rect x="11.1" y="10.67" width="0.03" height="0.21" transform="translate(22.23 21.56) rotate(180)" style="fill:#ffa412"/><rect x="11.32" y="10.67" width="0.03" height="0.21" transform="translate(22.66 21.56) rotate(180)" style="fill:#ffa412"/><rect x="10.01" y="10.67" width="0.03" height="0.21" transform="translate(20.04 21.56) rotate(180)" style="fill:#ffa412"/><rect x="9.95" y="10.67" width="0.03" height="0.21" transform="translate(19.93 21.56) rotate(180)" style="fill:#ffa412"/><rect x="9.9" y="10.67" width="0.03" height="0.21" transform="translate(19.82 21.56) rotate(180)" style="fill:#ffa412"/><path d="M9.86,10.67v.21h0v-.21h0Z" style="fill:#ffa412"/><path d="M9.82,10.69v.17l0,0v-.2Z" style="fill:#ffa412"/><path d="M9.76,10.51v.12s0,0,0,0l0,0h2.26s0,0,0,0h0v-.12h0s0,0,0,0H9.77A0,0,0,0,0,9.76,10.51Z" style="fill:#ffc76c"/><path d="M10.86,10.67h1.2a0,0,0,0,0,0,0h0v-.12h0a.07.07,0,0,0,0,0H11A.36.36,0,0,1,10.86,10.67Z" style="fill:#ffae39"/><rect x="10.03" y="10.46" width="0.03" height="0.21" transform="translate(20.09 21.14) rotate(180)" style="fill:#ffa412"/><rect x="10.12" y="10.46" width="0.03" height="0.21" transform="translate(20.27 21.14) rotate(180)" style="fill:#ffa412"/><rect x="10.22" y="10.46" width="0.03" height="0.21" transform="translate(20.47 21.14) rotate(180)" style="fill:#ffa412"/><rect x="10.38" y="10.46" width="0.03" height="0.21" transform="translate(20.79 21.14) rotate(180)" style="fill:#ffa412"/><rect x="10.55" y="10.46" width="0.03" height="0.21" transform="translate(21.12 21.14) rotate(180)" style="fill:#ffa412"/><rect x="10.81" y="10.46" width="0.03" height="0.21" transform="translate(21.64 21.14) rotate(180)" style="fill:#ffa412"/><rect x="11.05" y="10.46" width="0.03" height="0.21" transform="translate(22.12 21.14) rotate(180)" style="fill:#ffa412"/><rect x="11.26" y="10.46" width="0.03" height="0.21" transform="translate(22.55 21.14) rotate(180)" style="fill:#ffa412"/><rect x="9.95" y="10.46" width="0.03" height="0.21" transform="translate(19.93 21.14) rotate(180)" style="fill:#ffa412"/><rect x="9.9" y="10.46" width="0.03" height="0.21" transform="translate(19.82 21.14) rotate(180)" style="fill:#ffa412"/><rect x="9.85" y="10.46" width="0.03" height="0.21" transform="translate(19.72 21.14) rotate(180)" style="fill:#ffa412"/><path d="M9.81,10.47v.2h0v-.21h0Z" style="fill:#ffa412"/><path d="M9.77,10.48v.17l0,0v-.2Z" style="fill:#ffa412"/><path d="M9.93,10.3v.14l0,0h2.26s0,0,0,0h0V10.3h0a0,0,0,0,0,0,0H10l0,0Z" style="fill:#ffc76c"/><path d="M11,10.46h1.2a0,0,0,0,0,0,0h0V10.3h0s0,0,0,0H11.17a.31.31,0,0,1-.14.2Z" style="fill:#ffae39"/><rect x="10.2" y="10.26" width="0.03" height="0.21" transform="translate(20.42 20.72) rotate(180)" style="fill:#ffa412"/><rect x="10.28" y="10.26" width="0.03" height="0.21" transform="translate(20.59 20.72) rotate(180)" style="fill:#ffa412"/><rect x="10.39" y="10.26" width="0.03" height="0.21" transform="translate(20.8 20.72) rotate(180)" style="fill:#ffa412"/><rect x="10.55" y="10.26" width="0.03" height="0.21" transform="translate(21.12 20.72) rotate(180)" style="fill:#ffa412"/><rect x="10.71" y="10.26" width="0.03" height="0.21" transform="translate(21.45 20.72) rotate(180)" style="fill:#ffa412"/><rect x="10.97" y="10.26" width="0.03" height="0.21" transform="translate(21.97 20.72) rotate(180)" style="fill:#ffa412"/><rect x="11.21" y="10.26" width="0.03" height="0.21" transform="translate(22.45 20.72) rotate(180)" style="fill:#ffa412"/><rect x="11.43" y="10.26" width="0.03" height="0.21" transform="translate(22.88 20.72) rotate(180)" style="fill:#ffa412"/><rect x="10.12" y="10.26" width="0.03" height="0.21" transform="translate(20.26 20.72) rotate(180)" style="fill:#ffa412"/><rect x="10.06" y="10.26" width="0.03" height="0.21" transform="translate(20.15 20.72) rotate(180)" style="fill:#ffa412"/><rect x="10.01" y="10.26" width="0.03" height="0.21" transform="translate(20.04 20.72) rotate(180)" style="fill:#ffa412"/><path d="M10,10.26v.2h0v-.2h0Z" style="fill:#ffa412"/><path d="M9.93,10.28v.16l0,0v-.2Z" style="fill:#ffa412"/><path d="M9.93,10.09v.12a0,0,0,0,0,0,0h2.3s0,0,0,0h0v-.12h0s0,0,0,0H9.94Z" style="fill:#ffc76c"/><path d="M11,10.26h1.21s0,0,0,0h0v-.12h0a0,0,0,0,0,0,0H11.18a.4.4,0,0,1-.15.21Z" style="fill:#ffae39"/><rect x="10.2" y="10.05" width="0.03" height="0.21" transform="translate(20.43 20.31) rotate(180)" style="fill:#ffa412"/><rect x="10.29" y="10.05" width="0.03" height="0.21" transform="translate(20.6 20.31) rotate(180)" style="fill:#ffa412"/><rect x="10.39" y="10.05" width="0.03" height="0.21" transform="translate(20.81 20.31) rotate(180)" style="fill:#ffa412"/><rect x="10.55" y="10.05" width="0.03" height="0.21" transform="translate(21.13 20.31) rotate(180)" style="fill:#ffa412"/><rect x="10.72" y="10.05" width="0.03" height="0.21" transform="translate(21.46 20.31) rotate(180)" style="fill:#ffa412"/><rect x="10.98" y="10.05" width="0.03" height="0.21" transform="translate(21.98 20.31) rotate(180)" style="fill:#ffa412"/><rect x="11.22" y="10.05" width="0.03" height="0.21" transform="translate(22.46 20.31) rotate(180)" style="fill:#ffa412"/><rect x="11.43" y="10.05" width="0.03" height="0.21" transform="translate(22.89 20.31) rotate(180)" style="fill:#ffa412"/><rect x="10.12" y="10.05" width="0.03" height="0.21" transform="translate(20.27 20.31) rotate(180)" style="fill:#ffa412"/><rect x="10.07" y="10.05" width="0.03" height="0.21" transform="translate(20.16 20.31) rotate(180)" style="fill:#ffa412"/><rect x="10.01" y="10.05" width="0.03" height="0.21" transform="translate(20.05 20.31) rotate(180)" style="fill:#ffa412"/><path d="M10,10.05v.21h0v-.21Z" style="fill:#ffa412"/><path d="M9.94,10.07v.17h0v-.2S10,10.06,9.94,10.07Z" style="fill:#ffa412"/><path d="M9.81,9.89V10l0,0h2.28s0,0,0,0h0V9.89h0a0,0,0,0,0-.05-.05H9.82Z" style="fill:#ffc76c"/><path d="M10.91,10.05h1.23a.05.05,0,0,0,0,0h0V9.89h0a0,0,0,0,0,0-.05H11.06a.33.33,0,0,1-.14.21Z" style="fill:#ffae39"/><rect x="10.09" y="9.84" width="0.03" height="0.21" transform="translate(20.2 19.9) rotate(180)" style="fill:#ffa412"/><rect x="10.17" y="9.84" width="0.03" height="0.21" transform="translate(20.37 19.9) rotate(180)" style="fill:#ffa412"/><rect x="10.28" y="9.84" width="0.03" height="0.21" transform="translate(20.58 19.9) rotate(180)" style="fill:#ffa412"/><rect x="10.44" y="9.84" width="0.03" height="0.21" transform="translate(20.9 19.9) rotate(180)" style="fill:#ffa412"/><rect x="10.6" y="9.84" width="0.03" height="0.21" transform="translate(21.23 19.9) rotate(180)" style="fill:#ffa412"/><rect x="10.86" y="9.84" width="0.03" height="0.21" transform="translate(21.75 19.9) rotate(180)" style="fill:#ffa412"/><rect x="11.1" y="9.84" width="0.03" height="0.21" transform="translate(22.23 19.9) rotate(180)" style="fill:#ffa412"/><rect x="11.32" y="9.84" width="0.03" height="0.21" transform="translate(22.66 19.9) rotate(180)" style="fill:#ffa412"/><rect x="10.01" y="9.84" width="0.03" height="0.21" transform="translate(20.04 19.9) rotate(180)" style="fill:#ffa412"/><rect x="9.95" y="9.84" width="0.03" height="0.21" transform="translate(19.93 19.9) rotate(180)" style="fill:#ffa412"/><rect x="9.9" y="9.84" width="0.03" height="0.21" transform="translate(19.82 19.9) rotate(180)" style="fill:#ffa412"/><path d="M9.86,9.84v.21h0V9.84h0Z" style="fill:#ffa412"/><path d="M9.82,9.86V10l0,0v-.2Z" style="fill:#ffa412"/><path d="M9.63,9.68V9.8s0,0,0,0l0,0h2.26a0,0,0,0,0,.05,0h0V9.68h0a0,0,0,0,0-.05,0H9.64A0,0,0,0,0,9.63,9.68Z" style="fill:#ffc76c"/><path d="M10.73,9.84h1.2a0,0,0,0,0,.05,0h0V9.68h0a0,0,0,0,0,0,0H10.88A.38.38,0,0,1,10.73,9.84Z" style="fill:#ffae39"/><rect x="9.9" y="9.63" width="0.03" height="0.21" transform="translate(19.83 19.48) rotate(180)" style="fill:#ffa412"/><rect x="9.99" y="9.63" width="0.03" height="0.21" transform="translate(20.01 19.48) rotate(180)" style="fill:#ffa412"/><rect x="10.09" y="9.63" width="0.03" height="0.21" transform="translate(20.21 19.48) rotate(180)" style="fill:#ffa412"/><rect x="10.25" y="9.63" width="0.03" height="0.21" transform="translate(20.53 19.48) rotate(180)" style="fill:#ffa412"/><rect x="10.42" y="9.63" width="0.03" height="0.21" transform="translate(20.87 19.48) rotate(180)" style="fill:#ffa412"/><rect x="10.68" y="9.63" width="0.03" height="0.21" transform="translate(21.38 19.48) rotate(180)" style="fill:#ffa412"/><rect x="10.92" y="9.63" width="0.03" height="0.21" transform="translate(21.86 19.48) rotate(180)" style="fill:#ffa412"/><rect x="11.13" y="9.63" width="0.03" height="0.21" transform="translate(22.29 19.48) rotate(180)" style="fill:#ffa412"/><rect x="9.82" y="9.63" width="0.03" height="0.21" transform="translate(19.67 19.48) rotate(180)" style="fill:#ffa412"/><rect x="9.77" y="9.63" width="0.03" height="0.21" transform="translate(19.56 19.48) rotate(180)" style="fill:#ffa412"/><rect x="9.72" y="9.63" width="0.03" height="0.21" transform="translate(19.46 19.48) rotate(180)" style="fill:#ffa412"/><path d="M9.68,9.64v.2h0V9.63h0Z" style="fill:#ffa412"/><path d="M9.64,9.65v.17l0,0v-.2Z" style="fill:#ffa412"/><path d="M9.93,9.47v.15h2.29a0,0,0,0,0,0-.05h0V9.47h0a0,0,0,0,0,0,0H9.93Z" style="fill:#ffc76c"/><path d="M11,9.64h1.2a0,0,0,0,0,0-.05h0V9.47h0a0,0,0,0,0,0,0H11.17a.35.35,0,0,1-.14.2Z" style="fill:#ffae39"/><rect x="10.2" y="9.43" width="0.03" height="0.21" transform="translate(20.42 19.06) rotate(180)" style="fill:#ffa412"/><rect x="10.28" y="9.43" width="0.03" height="0.21" transform="translate(20.59 19.06) rotate(180)" style="fill:#ffa412"/><rect x="10.39" y="9.43" width="0.03" height="0.21" transform="translate(20.8 19.06) rotate(180)" style="fill:#ffa412"/><rect x="10.55" y="9.43" width="0.03" height="0.21" transform="translate(21.12 19.06) rotate(180)" style="fill:#ffa412"/><rect x="10.71" y="9.43" width="0.03" height="0.21" transform="translate(21.45 19.06) rotate(180)" style="fill:#ffa412"/><rect x="10.97" y="9.43" width="0.03" height="0.21" transform="translate(21.97 19.06) rotate(180)" style="fill:#ffa412"/><rect x="11.21" y="9.43" width="0.03" height="0.21" transform="translate(22.45 19.06) rotate(180)" style="fill:#ffa412"/><rect x="11.43" y="9.43" width="0.03" height="0.21" transform="translate(22.88 19.06) rotate(180)" style="fill:#ffa412"/><rect x="10.12" y="9.43" width="0.03" height="0.21" transform="translate(20.26 19.06) rotate(180)" style="fill:#ffa412"/><rect x="10.06" y="9.43" width="0.03" height="0.21" transform="translate(20.15 19.06) rotate(180)" style="fill:#ffa412"/><rect x="10.01" y="9.43" width="0.03" height="0.21" transform="translate(20.04 19.06) rotate(180)" style="fill:#ffa412"/><path d="M10,9.43v.2h0V9.43h0Z" style="fill:#ffa412"/><path d="M9.93,9.45v.17h0v-.2Z" style="fill:#ffa412"/><path d="M9.76,9.27v.14l0,0h2.28s0,0,0,0h0V9.27h0a0,0,0,0,0,0,0H9.8l0,0A0,0,0,0,0,9.76,9.27Z" style="fill:#ffc76c"/><path d="M10.86,9.43h1.22s0,0,0,0h0V9.27h0a0,0,0,0,0,0,0H11a.48.48,0,0,1-.14.21Z" style="fill:#ffae39"/><rect x="10.03" y="9.22" width="0.03" height="0.21" transform="translate(20.09 18.65) rotate(180)" style="fill:#ffa412"/><rect x="10.12" y="9.22" width="0.03" height="0.21" transform="translate(20.27 18.65) rotate(180)" style="fill:#ffa412"/><rect x="10.22" y="9.22" width="0.03" height="0.21" transform="translate(20.47 18.65) rotate(180)" style="fill:#ffa412"/><rect x="10.38" y="9.22" width="0.03" height="0.21" transform="translate(20.79 18.65) rotate(180)" style="fill:#ffa412"/><rect x="10.55" y="9.22" width="0.03" height="0.21" transform="translate(21.12 18.65) rotate(180)" style="fill:#ffa412"/><rect x="10.81" y="9.22" width="0.03" height="0.21" transform="translate(21.64 18.65) rotate(180)" style="fill:#ffa412"/><rect x="11.05" y="9.22" width="0.03" height="0.21" transform="translate(22.12 18.65) rotate(180)" style="fill:#ffa412"/><rect x="11.26" y="9.22" width="0.03" height="0.21" transform="translate(22.55 18.65) rotate(180)" style="fill:#ffa412"/><rect x="9.95" y="9.22" width="0.03" height="0.21" transform="translate(19.93 18.65) rotate(180)" style="fill:#ffa412"/><rect x="9.9" y="9.22" width="0.03" height="0.21" transform="translate(19.82 18.65) rotate(180)" style="fill:#ffa412"/><rect x="9.85" y="9.22" width="0.03" height="0.21" transform="translate(19.72 18.65) rotate(180)" style="fill:#ffa412"/><path d="M9.81,9.22v.21h0V9.22h0Z" style="fill:#ffa412"/><path d="M9.77,9.24v.17l0,0V9.22Z" style="fill:#ffa412"/><path d="M9.69,9.06V9.2l0,0H12s0,0,0,0h0V9.06h0A.05.05,0,0,0,12,9H9.7A0,0,0,0,0,9.69,9.06Z" style="fill:#ffc76c"/><path d="M10.79,9.22H12a0,0,0,0,0,0,0h0V9.06h0A0,0,0,0,0,12,9H10.94a.4.4,0,0,1-.15.21Z" style="fill:#ffae39"/><rect x="9.96" y="9.01" width="0.03" height="0.21" transform="translate(19.95 18.23) rotate(180)" style="fill:#ffa412"/><rect x="10.05" y="9.01" width="0.03" height="0.21" transform="translate(20.12 18.23) rotate(180)" style="fill:#ffa412"/><rect x="10.15" y="9.01" width="0.03" height="0.21" transform="translate(20.33 18.23) rotate(180)" style="fill:#ffa412"/><rect x="10.31" y="9.01" width="0.03" height="0.21" transform="translate(20.65 18.23) rotate(180)" style="fill:#ffa412"/><rect x="10.48" y="9.01" width="0.03" height="0.21" transform="translate(20.98 18.23) rotate(180)" style="fill:#ffa412"/><rect x="10.74" y="9.01" width="0.03" height="0.21" transform="translate(21.5 18.23) rotate(180)" style="fill:#ffa412"/><rect x="10.98" y="9.01" width="0.03" height="0.21" transform="translate(21.98 18.23) rotate(180)" style="fill:#ffa412"/><rect x="11.19" y="9.01" width="0.03" height="0.21" style="fill:#ffa412"/><rect x="9.88" y="9.01" width="0.03" height="0.21" transform="translate(19.79 18.23) rotate(180)" style="fill:#ffa412"/><rect x="9.83" y="9.01" width="0.03" height="0.21" transform="translate(19.68 18.23) rotate(180)" style="fill:#ffa412"/><rect x="9.77" y="9.01" width="0.03" height="0.21" transform="translate(19.58 18.23) rotate(180)" style="fill:#ffa412"/><path d="M9.74,9v.21h0V9h0Z" style="fill:#ffa412"/><path d="M9.7,9V9.2l0,0V9Z" style="fill:#ffa412"/><circle cx="12.39" cy="10.22" r="1.06" style="fill:#e2810e"/><circle cx="12.48" cy="10.22" r="1.06" style="fill:#ffc76c"/><path d="M11.79,10.92a1,1,0,0,1,0-1.37,1,1,0,0,1,1.38,0,1,1,0,0,1,0,1.37,1,1,0,0,1-1.38,0Zm-.22-.68a.91.91,0,1,0,.91-.92A.91.91,0,0,0,11.57,10.24Z" style="fill:#ffa412"/><path d="M12.61,10.52a.06.06,0,0,0,0-.06s0,0,0-.05l-.05,0-.07,0-.14-.07-.1-.09a.21.21,0,0,1-.06-.1.28.28,0,0,1,0-.13.35.35,0,0,1,0-.11l.08-.08a.39.39,0,0,1,.11-.06h.13l0-.16h.13l0,.17a.22.22,0,0,1,.12.05.24.24,0,0,1,.09.08.37.37,0,0,1,.05.11.33.33,0,0,1,0,.14l-.23,0a.21.21,0,0,0,0-.14.14.14,0,0,0-.11-.05h-.06l0,0s0,0,0,0,0,0,0,.05v0a.13.13,0,0,0,0,.05l0,0,.08,0,.14.08a.39.39,0,0,1,.1.08l.06.1a.53.53,0,0,1,0,.13.34.34,0,0,1,0,.12.27.27,0,0,1-.07.08l-.11,0a.32.32,0,0,1-.14,0l0,.15h-.12v-.15l-.12,0a.27.27,0,0,1-.1-.08.24.24,0,0,1-.07-.12.37.37,0,0,1,0-.15l.23,0a.22.22,0,0,0,0,.09.09.09,0,0,0,0,.06.1.1,0,0,0,.05,0l.07,0h.06l.06,0,0,0A.09.09,0,0,0,12.61,10.52Z" style="fill:#ffa412"/><path d="M7.84,9.93s-.13.19-.25.19A.89.89,0,0,1,7.28,10s-.12-.25,0-.35a.18.18,0,0,1,.16,0l0,0,.06,0c.09,0,.2,0,.23,0l.07.08Z" style="fill:#ffeddc"/><path d="M6.09,11.29s.48-1.15,1.33-1.17c0,0,.79.09.84,1.17Z" style="fill:#ffeddc"/><path d="M7.19,10.16a1.4,1.4,0,0,0,.45,0s0-.15-.13-.13a.25.25,0,0,1-.2-.05C7.25,10,7.17,10.1,7.19,10.16Z" style="fill:#2b478b"/><path d="M7.49,9.94s-.09-.23-.09-.23l0,0,.06,0S7.51,9.92,7.49,9.94Z" style="fill:#e5c1a1"/><path d="M7.8,9.9,7.62,10s.11-.17.11-.17Z" style="fill:#e5c1a1"/><path d="M6.56,11s.33-.51.43-.51.31.11.46.12.3,0,.33.07.11.41.06.46A2.73,2.73,0,0,1,6.56,11Z" style="fill:#f9ddbf"/><path d="M9.84,4.1l0-.19h.07l0,.18s0,.08.08.07a.07.07,0,0,0,.06-.09l0-.18.07,0,0,.19a.13.13,0,0,1-.12.16A.12.12,0,0,1,9.84,4.1Z" style="fill:#a8d29f"/><path d="M10.16,3.85l.14,0s.07,0,.09,0a.05.05,0,0,1,0,.05.06.06,0,0,1,0,.08.08.08,0,0,1,.08.07s0,.09-.11.1l-.15,0Zm.15.11s0,0,0,0a0,0,0,0,0-.06,0h-.06V4Zm0,.12a0,0,0,0,0,.05,0s0,0-.06,0l-.08,0V4.1Z" style="fill:#a8d29f"/><path d="M10.49,3.79h.07l.06.32h-.07Z" style="fill:#a8d29f"/><path d="M10.71,10.35a0,0,0,0,1,0,.06h0a.36.36,0,0,1-.12.14h0a1.82,1.82,0,0,1-.13.16c-.11.12-.19.12-.21.11s0-.07.06-.14h0v0c0-.08,0-.12,0-.24s-.16-.56-.16-.56l.21,0s.07.37.14.42.08,0,.11.06h0Z" style="fill:#ffb27d"/><path d="M10.71,10.35a0,0,0,0,1,0,.06h0a.47.47,0,0,1-.12.13l0,0h0a1.82,1.82,0,0,1-.13.16c-.11.12-.19.12-.21.11s0-.07.06-.14a.53.53,0,0,0,.2-.15c.06-.08.11-.19.15-.25h0Z" style="fill:#233862"/><path d="M9,10.22c0,.06-.1,0-.21,0s-.08,0-.23,0-.19-.07-.19-.09.07,0,.14,0h0A.6.6,0,0,0,8.78,10,1,1,0,0,0,9,9.76h.2L9,10a.32.32,0,0,0,0,.14A.08.08,0,0,1,9,10.22Z" style="fill:#ffb27d"/><path d="M8.79,10.24c-.1,0-.08,0-.23,0s-.19-.07-.19-.09.07,0,.14,0h0a.37.37,0,0,0,.21.06c.1,0,.2,0,.27,0a.08.08,0,0,1,0,.07C9,10.28,8.9,10.27,8.79,10.24Z" style="fill:#233862"/><path d="M9.78,8.92l.19.51.25.66a.33.33,0,0,0,.13,0,.39.39,0,0,0,.13-.06,7.17,7.17,0,0,0-.2-1.13.77.77,0,0,0-.11-.24C10,8.42,9.78,8.92,9.78,8.92Z" style="fill:#233862"/><path d="M10,8.1a2.69,2.69,0,0,1,.84.09l.07-.13L11.66,8a1.51,1.51,0,0,1,.11.92.12.12,0,0,1-.13.09H11a2.35,2.35,0,0,1-.86-.27c-.1,0-.13.16-.22.35a6.53,6.53,0,0,1-.85.84H8.92a.16.16,0,0,1-.07-.05S9.69,8.19,10,8.1Z" style="fill:#2b478b"/><path d="M10.67,7a8.41,8.41,0,0,0,.83.54.46.46,0,0,0,.32.06.47.47,0,0,0,.08-.77c-.15-.18-.27-.24-.24-.47s-.09-.58-.38-.59a.54.54,0,0,0-.28,0C10.73,5.85,10.28,6.86,10.67,7Z" style="fill:#233862"/><path d="M11.71,8.09a1.81,1.81,0,0,1-.67.06.24.24,0,0,1-.15,0c-.09-.07-.08.09-.09-.69a1.16,1.16,0,0,1,.32-.71s0,.16.35,0a2.8,2.8,0,0,1,.26.42A2.2,2.2,0,0,1,11.71,8.09Z" style="fill:#aec3ff"/><path d="M10,9.43l.25.66a.33.33,0,0,0,.13,0,.39.39,0,0,0,.13-.06,7.17,7.17,0,0,0-.2-1.13Z" style="fill:#2b478b"/><path d="M11.12,6.72s-.3.07-.37.2l-.56.85s.46.17.53.09A4.39,4.39,0,0,0,11,7.13Z" style="fill:#aec3ff"/><path d="M11.47,6.69a1,1,0,0,1-.21.15l-.09,0-.05-.05s0,0,0-.12h0a.63.63,0,0,0,0-.17h0l.29-.08h0C11.38,6.59,11.43,6.69,11.47,6.69Z" style="fill:#ffb27d"/><path d="M11.37,6.43a.32.32,0,0,1-.26.21.58.58,0,0,0,0-.13h0Z" style="fill:#ed975d"/><path d="M11,6.59s.39,0,.37-.26,0-.4-.23-.4-.29.1-.3.18S10.93,6.59,11,6.59Z" style="fill:#ffb27d"/><path d="M11,5.93s.09.28.32.31a.4.4,0,0,0,.23,0A.7.7,0,0,1,11.38,6a.14.14,0,0,0-.1-.08C11.17,5.9,11,5.83,11,5.93Z" style="fill:#233862"/><path d="M11.05,6a.22.22,0,0,0-.12.13.5.5,0,0,0,0,.24s-.11-.25,0-.37A.11.11,0,0,1,11.05,6Z" style="fill:#233862"/><path d="M11.12,6.69s0,.15.05.17a.2.2,0,0,1-.11-.12A.16.16,0,0,1,11.12,6.69Z" style="fill:#91b0f2"/><path d="M10.84,7.18s-.21.25-.19.35.18.09.18.09a.94.94,0,0,1,0-.3C10.86,7.21,10.87,7.17,10.84,7.18Z" style="fill:#91b0f2"/><path d="M11.32,7.92s.31-.19.31-.3,0-.31,0-.28a.76.76,0,0,1,.11.31,2,2,0,0,1-.36.51C11.13,8.16,11.32,7.92,11.32,7.92Z" style="fill:#91b0f2"/><path d="M11.41,6.63s-.17.21-.24.23a.49.49,0,0,0,.34-.16S11.46,6.63,11.41,6.63Z" style="fill:#91b0f2"/><circle cx="10.63" cy="7.69" r="0.78" style="fill:#e2810e"/><circle cx="10.56" cy="7.69" r="0.78" style="fill:#ffc76c"/><path d="M10.56,8.41a.72.72,0,0,1-.72-.71A.72.72,0,0,1,10.56,7a.72.72,0,0,1,.71.72.72.72,0,0,1-.71.71Zm0-1.38a.67.67,0,1,0,.67.67A.67.67,0,0,0,10.56,7Z" style="fill:#ffa412"/><path d="M10.66,7.9a.08.08,0,0,0,0,0,0,0,0,0,0,0,0l0,0,0,0-.1-.06-.08-.06a.25.25,0,0,1,0-.07.31.31,0,0,1,0-.1.11.11,0,0,1,0-.08.1.1,0,0,1,.05-.06l.08,0h.1V7.17h.1V7.3l.08,0,.07.06a.11.11,0,0,1,0,.08.34.34,0,0,1,0,.1l-.17,0a.15.15,0,0,0,0-.1.1.1,0,0,0-.08,0h0a.05.05,0,0,0,0,0s0,0,0,0,0,0,0,0v0l0,0,0,0,0,0,.1.05.08.06a.3.3,0,0,1,0,.08.28.28,0,0,1,0,.09l0,.09-.06.06-.07,0h-.1l0,.11-.09,0v-.1l-.09,0L10.3,8a.36.36,0,0,1,0-.09.23.23,0,0,1,0-.12l.17,0V7.9l0,0,0,0,0,0h.09l0,0Z" style="fill:#ffa412"/><path d="M9.72,7.82s0-.13,0-.12.12.15.09.17S9.72,7.85,9.72,7.82Z" style="fill:#ffb27d"/><path d="M11.39,8.12l-.08,0-.07,0h-.09l.06.06c0,.06-.17.07-.18.09s.05,0,.08.07a.25.25,0,0,0,.17,0l.09-.07Z" style="fill:#ffb27d"/><path d="M11.47,6.69s.3,0,.38.14a2.84,2.84,0,0,1,.28,1c0,.21-.77.46-.77.46a.14.14,0,0,1,0-.1.17.17,0,0,1,0-.09s.44-.37.41-.45C11.66,7.38,11.47,6.69,11.47,6.69Z" style="fill:#aec3ff"/><path d="M18.3,11.35H.45s0,0,0,0v0s0,0,0,0H18.3s0,0,0,0h0Z" style="fill:#2e3552"/></svg>